<?xml version="1.0" encoding="UTF-8" standalone="no"?>
<!-- Created with Inkscape (http://www.inkscape.org/) -->
<svg
   xmlns:dc="http://purl.org/dc/elements/1.1/"
   xmlns:cc="http://creativecommons.org/ns#"
   xmlns:rdf="http://www.w3.org/1999/02/22-rdf-syntax-ns#"
   xmlns:svg="http://www.w3.org/2000/svg"
   xmlns="http://www.w3.org/2000/svg"
   xmlns:xlink="http://www.w3.org/1999/xlink"
   xmlns:sodipodi="http://sodipodi.sourceforge.net/DTD/sodipodi-0.dtd"
   xmlns:inkscape="http://www.inkscape.org/namespaces/inkscape"
   version="1.0"
   width="1015"
   height="1015"
   id="svg2408"
   sodipodi:version="0.32"
   inkscape:version="0.46"
   sodipodi:docname="Vw Logo.svg"
   inkscape:output_extension="org.inkscape.output.svg.inkscape">
  <metadata
     id="metadata40">
    <rdf:RDF>
      <cc:Work
         rdf:about="">
        <dc:format>image/svg+xml</dc:format>
        <dc:type
           rdf:resource="http://purl.org/dc/dcmitype/StillImage" />
      </cc:Work>
    </rdf:RDF>
  </metadata>
  <sodipodi:namedview
     inkscape:window-height="1150"
     inkscape:window-width="1920"
     inkscape:pageshadow="2"
     inkscape:pageopacity="0.0"
     guidetolerance="10.0"
     gridtolerance="10.0"
     objecttolerance="10.0"
     borderopacity="1.0"
     bordercolor="#666666"
     pagecolor="#ffffff"
     id="base"
     showgrid="false"
     inkscape:zoom="0.5775"
     inkscape:cx="1133.2688"
     inkscape:cy="430.09614"
     inkscape:window-x="1016"
     inkscape:window-y="-8"
     inkscape:current-layer="svg2408" />
  <defs
     id="defs2410">
    <inkscape:perspective
       sodipodi:type="inkscape:persp3d"
       inkscape:vp_x="0 : 800 : 1"
       inkscape:vp_y="0 : 1000 : 0"
       inkscape:vp_z="1600 : 800 : 1"
       inkscape:persp3d-origin="800 : 533.33333 : 1"
       id="perspective42" />
    <linearGradient
       id="linearGradient3219">
      <stop
         id="stop3221"
         style="stop-color:#ffffff;stop-opacity:1"
         offset="0" />
      <stop
         id="stop3227"
         style="stop-color:#ffffff;stop-opacity:1"
         offset="0.5" />
      <stop
         id="stop3223"
         style="stop-color:#989b9e;stop-opacity:1"
         offset="1" />
    </linearGradient>
    <linearGradient
       x1="176.53017"
       y1="265.2677"
       x2="404.60199"
       y2="589.9801"
       id="linearGradient3324"
       xlink:href="#linearGradient3219"
       gradientUnits="userSpaceOnUse" />
    <filter
       id="filter3293">
      <feGaussianBlur
         id="feGaussianBlur3295"
         stdDeviation="5.1378907"
         inkscape:collect="always" />
    </filter>
    <radialGradient
       cx="243.66701"
       cy="294.6665"
       r="307.66959"
       id="SVGID_2_"
       gradientUnits="userSpaceOnUse">
      <stop
         id="stop18"
         style="stop-color:#209bd3;stop-opacity:1"
         offset="0" />
      <stop
         id="stop20"
         style="stop-color:#136194;stop-opacity:1"
         offset="0.54570001" />
      <stop
         id="stop22"
         style="stop-color:#0a3b6c;stop-opacity:1"
         offset="1" />
    </radialGradient>
    <radialGradient
       cx="243.66701"
       cy="294.6665"
       r="307.66959"
       id="radialGradient3322"
       xlink:href="#SVGID_2_"
       gradientUnits="userSpaceOnUse" />
    <linearGradient
       x1="157.4238"
       y1="228.7114"
       x2="437.423"
       y2="612.62152"
       id="SVGID_1_"
       gradientUnits="userSpaceOnUse">
      <stop
         id="stop9"
         style="stop-color:#1077b9;stop-opacity:1"
         offset="0" />
      <stop
         id="stop11"
         style="stop-color:#042a54;stop-opacity:1"
         offset="1" />
    </linearGradient>
    <linearGradient
       x1="157.4238"
       y1="228.7114"
       x2="437.423"
       y2="612.62152"
       id="linearGradient3320"
       xlink:href="#SVGID_1_"
       gradientUnits="userSpaceOnUse" />
  </defs>
  <g
     id="layer1"
     transform="matrix(0.634375,0,0,0.6346362,-1.8019939e-6,-0.4177383)">
    <g
       transform="matrix(3.2000005,0,0,3.2000005,-152.44813,-547.02412)"
       id="g2408">
      <path
         d="M -14.578186,-172.20477 C -14.578184,-16.71389 -146.74739,109.33638 -309.78638,109.33638 C -472.82536,109.33638 -604.99457,-16.71389 -604.99457,-172.20477 C -604.99457,-327.69565 -472.82536,-453.74592 -309.78638,-453.74592 C -146.74739,-453.74592 -14.578184,-327.69565 -14.578186,-172.20477 L -14.578186,-172.20477 z"
         transform="matrix(0.8451475,0,0,0.886174,559.45518,573.54839)"
         id="path3301"
         style="opacity:1;fill:#bec7cb;fill-opacity:1;stroke:#000000;stroke-width:1.16822207;stroke-miterlimit:18.20000076;stroke-dasharray:none;stroke-opacity:1" />
      <g
         transform="translate(-2.6992188e-2,-5.5e-2)"
         id="g3303">
        <g
           id="Ebene_2">
          <linearGradient
             x1="157.4238"
             y1="228.7114"
             x2="437.423"
             y2="612.62152"
             id="linearGradient2438"
             gradientUnits="userSpaceOnUse">
            <stop
               id="stop2440"
               style="stop-color:#1077b9;stop-opacity:1"
               offset="0" />
            <stop
               id="stop2442"
               style="stop-color:#042a54;stop-opacity:1"
               offset="1" />
          </linearGradient>
          <circle
             cx="297.66699"
             cy="421"
             r="241.334"
             id="circle13"
             style="fill:url(#linearGradient3320);stroke:#000000"
             sodipodi:cx="297.66699"
             sodipodi:cy="421"
             sodipodi:rx="241.334"
             sodipodi:ry="241.334" />
        </g>
        <path
           d="M -69.581253,194.39795 C -69.566765,322.85968 -172.25914,427.00628 -298.94162,427.00628 C -425.6241,427.00628 -528.31648,322.85968 -528.30199,194.39795 C -528.31648,65.93622 -425.6241,-38.21038 -298.94162,-38.21038 C -172.25914,-38.21038 -69.566765,65.93622 -69.581253,194.39795 L -69.581253,194.39795 z"
           transform="matrix(0.8258426,0,0,0.8227147,541.95472,259.95865)"
           id="path3297"
           style="opacity:1;fill:#ffffff;fill-opacity:1;stroke:none;stroke-width:0.25299999;stroke-miterlimit:18.20000076;stroke-dasharray:none;stroke-opacity:1" />
        <g
           transform="translate(-9.0370951e-2,0.5185818)"
           id="Ebene_5">
          <radialGradient
             cx="243.66701"
             cy="294.6665"
             r="307.66959"
             id="radialGradient2447"
             gradientUnits="userSpaceOnUse">
            <stop
               id="stop2449"
               style="stop-color:#209bd3;stop-opacity:1"
               offset="0" />
            <stop
               id="stop2451"
               style="stop-color:#136194;stop-opacity:1"
               offset="0.54570001" />
            <stop
               id="stop2453"
               style="stop-color:#0a3b6c;stop-opacity:1"
               offset="1" />
          </radialGradient>
          <ellipse
             cx="297.66699"
             cy="420.66699"
             rx="170"
             ry="170.666"
             id="ellipse24"
             style="fill:url(#radialGradient3322)"
             sodipodi:cx="297.66699"
             sodipodi:cy="420.66699"
             sodipodi:rx="170"
             sodipodi:ry="170.666" />
        </g>
        <path
           d="M 305.97971,221.62961 C 192.53692,221.62961 100.44846,313.71806 100.44845,427.16086 C 100.44846,540.60371 192.53692,632.66085 305.97971,632.66086 C 419.42254,632.6609 511.47972,540.60368 511.47971,427.16086 C 511.47975,313.71809 419.4225,221.62961 305.97971,221.62961 z M 304.35471,250.09836 C 321.88292,249.97046 339.40692,252.3781 356.19846,257.34836 L 330.10471,314.94211 L 304.19846,371.37961 L 278.72971,314.66086 L 252.54221,258.12961 C 269.28868,252.89563 286.82653,250.22626 304.35471,250.09836 z M 393.88596,273.50461 C 411.37513,283.68342 429.74499,297.46044 447.88596,321.56711 C 421.65183,383.97485 393.15326,450.84624 366.57346,513.47336 L 331.44846,433.06711 L 276.41721,433.06711 L 240.38596,512.09836 C 212.71803,449.99834 185.99893,388.09855 161.79221,324.53586 C 178.84027,300.44635 196.1321,287.4196 213.47971,275.91086 C 234.21345,323.4048 254.96471,370.88571 275.69846,418.37961 L 331.35471,418.37961 C 352.23214,370.41478 372.99863,321.35034 393.88596,273.50461 z M 473.41721,369.91086 C 476.06016,378.11204 480.63375,393.18289 482.35471,416.59836 C 483.20137,428.11806 482.75404,443.57305 480.01096,458.56711 C 475.37107,483.9294 464.69468,509.91728 447.79221,532.47336 C 444.27929,537.16125 440.47354,541.69285 436.38596,546.12961 C 420.92211,562.91445 400.96476,578.17515 376.60471,589.03586 C 384.05408,575.77413 390.87116,562.29225 397.01096,548.87961 C 405.6548,529.99683 414.324,511.13633 422.32346,492.03586 C 424.23909,487.46188 426.37173,482.96976 428.41721,478.44211 C 435.68115,462.3634 442.58576,445.77515 449.26096,429.47336 C 456.45627,411.90139 466.98344,387.9182 473.41721,369.91086 z M 137.07346,374.28586 C 143.50723,392.29322 150.1594,410.71388 157.35471,428.28586 C 164.02991,444.58767 171.02827,460.95714 178.29221,477.03586 C 195.05025,514.12975 212.5902,550.77874 231.38596,587.37961 C 199.34775,571.95732 177.93547,551.80867 161.91721,529.47336 C 136.88951,494.57565 128.82132,456.19368 129.16721,425.66086 C 129.44015,401.56675 134.35448,382.24852 137.07346,374.28586 z M 303.54221,481.69211 L 356.82346,596.37961 C 342.80178,601.08696 327.82849,603.08155 312.57346,603.47336 C 310.14748,603.53568 307.72987,603.54936 305.29221,603.53586 C 284.90496,603.42299 267.53709,600.70433 251.63596,595.25461 L 303.54221,481.69211 z"
           id="path3299"
           style="opacity:0.65;fill:#000000;fill-opacity:1;stroke:none;stroke-width:0.25299999;stroke-miterlimit:18.20000076;stroke-dasharray:none;stroke-opacity:1;filter:url(#filter3293)" />
        <path
           d="M 311.99082,219.85875 C 198.54803,219.85875 106.45957,311.9472 106.45956,425.39 C 106.45957,538.83285 198.54803,630.88999 311.99082,630.89 C 425.43365,630.89004 517.49083,538.83282 517.49082,425.39 C 517.49086,311.94723 425.43361,219.85875 311.99082,219.85875 z M 310.36582,248.3275 C 327.89403,248.1996 345.41803,250.60724 362.20957,255.5775 L 336.11582,313.17125 L 310.20957,369.60875 L 284.74082,312.89 L 258.55332,256.35875 C 275.29979,251.12477 292.83764,248.4554 310.36582,248.3275 z M 399.89707,271.73375 C 417.38624,281.91256 435.7561,295.68958 453.89707,319.79625 C 427.66294,382.20399 399.16437,449.07538 372.58457,511.7025 L 337.45957,431.29625 L 282.42832,431.29625 L 246.39707,510.3275 C 218.72914,448.22748 192.01004,386.32769 167.80332,322.765 C 184.85138,298.67549 202.14321,285.64874 219.49082,274.14 C 240.22456,321.63394 260.97582,369.11485 281.70957,416.60875 L 337.36582,416.60875 C 358.24325,368.64392 379.00974,319.57948 399.89707,271.73375 z M 479.42832,368.14 C 482.07127,376.34118 486.64486,391.41203 488.36582,414.8275 C 489.21248,426.3472 488.76515,441.80219 486.02207,456.79625 C 481.38218,482.15854 470.70579,508.14642 453.80332,530.7025 C 450.2904,535.39039 446.48465,539.92199 442.39707,544.35875 C 426.93322,561.14359 406.97587,576.40429 382.61582,587.265 C 390.06519,574.00327 396.88227,560.52139 403.02207,547.10875 C 411.66591,528.22597 420.33511,509.36547 428.33457,490.265 C 430.2502,485.69102 432.38284,481.1989 434.42832,476.67125 C 441.69226,460.59254 448.59687,444.00429 455.27207,427.7025 C 462.46738,410.13053 472.99455,386.14734 479.42832,368.14 z M 143.08457,372.515 C 149.51834,390.52236 156.17051,408.94302 163.36582,426.515 C 170.04102,442.81681 177.03938,459.18628 184.30332,475.265 C 201.06136,512.35889 218.60131,549.00788 237.39707,585.60875 C 205.35886,570.18646 183.94658,550.03781 167.92832,527.7025 C 142.90062,492.80479 134.83243,454.42282 135.17832,423.89 C 135.45126,399.79589 140.36559,380.47766 143.08457,372.515 z M 309.55332,479.92125 L 362.83457,594.60875 C 348.81289,599.3161 333.8396,601.31069 318.58457,601.7025 C 316.15859,601.76482 313.74098,601.7785 311.30332,601.765 C 290.91607,601.65213 273.5482,598.93347 257.64707,593.48375 L 309.55332,479.92125 z"
           id="path3229"
           style="opacity:0.5;fill:#000000;fill-opacity:1;stroke:none;stroke-width:0.25299999;stroke-miterlimit:18.20000076;stroke-dasharray:none;stroke-opacity:1;filter:url(#filter3293)" />
        <path
           d="M 297.71875,215.65625 C 184.27596,215.65625 92.187501,307.7447 92.1875,421.1875 C 92.187508,534.63035 184.27596,626.68749 297.71875,626.6875 C 411.16158,626.68754 503.21876,534.63032 503.21875,421.1875 C 503.21879,307.74473 411.16154,215.65625 297.71875,215.65625 z M 296.09375,244.125 C 313.62196,243.9971 331.14596,246.40474 347.9375,251.375 L 321.84375,308.96875 L 295.9375,365.40625 L 270.46875,308.6875 L 244.28125,252.15625 C 261.02772,246.92227 278.56557,244.2529 296.09375,244.125 z M 385.625,267.53125 C 403.11417,277.71006 421.48403,291.48708 439.625,315.59375 C 413.39087,378.00149 384.8923,444.87288 358.3125,507.5 L 323.1875,427.09375 L 268.15625,427.09375 L 232.125,506.125 C 204.45707,444.02498 177.73797,382.12519 153.53125,318.5625 C 170.57931,294.47299 187.87114,281.44624 205.21875,269.9375 C 225.95249,317.43144 246.70375,364.91235 267.4375,412.40625 L 323.09375,412.40625 C 343.97118,364.44142 364.73767,315.37698 385.625,267.53125 z M 465.15625,363.9375 C 467.7992,372.13868 472.37279,387.20953 474.09375,410.625 C 474.94041,422.1447 474.49308,437.59969 471.75,452.59375 C 467.11011,477.95604 456.43372,503.94392 439.53125,526.5 C 436.01833,531.18789 432.21258,535.71949 428.125,540.15625 C 412.66115,556.94109 392.7038,572.20179 368.34375,583.0625 C 375.79312,569.80077 382.6102,556.31889 388.75,542.90625 C 397.39384,524.02347 406.06304,505.16297 414.0625,486.0625 C 415.97813,481.48852 418.11077,476.9964 420.15625,472.46875 C 427.42019,456.39004 434.3248,439.80179 441,423.5 C 448.19531,405.92803 458.72248,381.94484 465.15625,363.9375 z M 128.8125,368.3125 C 135.24627,386.31986 141.89844,404.74052 149.09375,422.3125 C 155.76895,438.61431 162.76731,454.98378 170.03125,471.0625 C 186.78929,508.15639 204.32924,544.80538 223.125,581.40625 C 191.08679,565.98396 169.67451,545.83531 153.65625,523.5 C 128.62855,488.60229 120.56036,450.22032 120.90625,419.6875 C 121.17919,395.59339 126.09352,376.27516 128.8125,368.3125 z M 295.28125,475.71875 L 348.5625,590.40625 C 334.54082,595.1136 319.56753,597.10819 304.3125,597.5 C 301.88652,597.56232 299.46891,597.576 297.03125,597.5625 C 276.644,597.44963 259.27613,594.73097 243.375,589.28125 L 295.28125,475.71875 z"
           transform="translate(-9.4696599e-6,0)"
           id="path3198"
           style="fill:url(#linearGradient3324);fill-opacity:1;stroke:#000000;stroke-width:0.55299997;stroke-miterlimit:18.20000076;stroke-dasharray:none;stroke-opacity:1" />
      </g>
    </g>
  </g>
</svg>
